<?xml version="1.0" encoding="UTF-8"?>
<svg version="1.1" xmlns="http://www.w3.org/2000/svg" width="237" height="213">
<path d="M0 0 C2.16290585 0.87433798 3.80964906 1.90377343 5.68652344 3.28930664 C6.39292969 3.80557617 7.09933594 4.3218457 7.82714844 4.85375977 C8.58253906 5.41514648 9.33792969 5.9765332 10.11621094 6.55493164 C11.74369518 7.74780361 13.37130275 8.94050733 14.99902344 10.13305664 C15.82950195 10.7447168 16.65998047 11.35637695 17.515625 11.98657227 C21.32345297 14.78348575 25.15766814 17.54343128 28.99121094 20.30493164 C30.49135708 21.38806259 31.99135664 22.4713966 33.49121094 23.55493164 C34.23371094 24.09118164 34.97621094 24.62743164 35.74121094 25.17993164 C37.99121094 26.80493164 40.24121094 28.42993164 42.49121094 30.05493164 C43.23419434 30.59150391 43.97717773 31.12807617 44.74267578 31.6809082 C46.23789605 32.76084362 47.73301378 33.84092103 49.22802734 34.92114258 C53.05031528 37.68265604 56.87452677 40.44143977 60.70214844 43.19555664 C69.19853567 49.31299079 77.65075597 55.47599816 85.99121094 61.80493164 C85.38817523 66.91234239 84.26809431 71.63610961 82.69042969 76.53540039 C82.34189941 77.63915764 82.34189941 77.63915764 81.98632812 78.76521301 C81.22292101 81.17617185 80.45110838 83.58433936 79.67871094 85.99243164 C79.13986505 87.68573047 78.60121245 89.37909082 78.06274414 91.07250977 C73.9126988 104.08571033 69.63205873 117.05504088 65.26538086 129.99707031 C61.37084806 141.56279794 57.69355755 153.16898514 53.99121094 164.80493164 C18.02121094 164.80493164 -17.94878906 164.80493164 -55.00878906 164.80493164 C-68.64987909 123.88166155 -68.64987909 123.88166155 -73.01480103 109.93240356 C-74.33795755 105.70415348 -75.67070478 101.47893385 -77.00488281 97.25415039 C-77.39162422 96.02939247 -77.39162422 96.02939247 -77.78617859 94.77989197 C-80.36782652 86.6292126 -83.06128405 78.51745601 -85.82617188 70.42700195 C-86.11975586 69.56300781 -86.41333984 68.69901367 -86.71582031 67.80883789 C-86.96823486 67.07479736 -87.22064941 66.34075684 -87.48071289 65.58447266 C-88.00878906 63.80493164 -88.00878906 63.80493164 -88.00878906 61.80493164 C-85.58598834 59.94949564 -83.15249525 58.20970643 -80.63378906 56.49243164 C-79.0602318 55.40090664 -77.48733572 54.30842796 -75.91503906 53.21508789 C-75.10035156 52.65063965 -74.28566406 52.08619141 -73.44628906 51.50463867 C-69.64554644 48.85432115 -65.88738458 46.14644785 -62.13378906 43.42993164 C-61.39435059 42.8954541 -60.65491211 42.36097656 -59.89306641 41.81030273 C-53.51177847 37.18823266 -47.17291463 32.5093493 -40.83569336 27.82714844 C-35.69303128 24.03226964 -30.52986149 20.27025395 -25.30712891 16.58618164 C-21.92643086 14.19724731 -18.5951481 11.75342254 -15.28613281 9.26586914 C-14.47345947 8.66137939 -13.66078613 8.05688965 -12.82348633 7.43408203 C-11.22386416 6.2429694 -9.63157462 5.04193138 -8.04760742 3.83007812 C-7.32065674 3.2919751 -6.59370605 2.75387207 -5.84472656 2.19946289 C-5.20067871 1.71324463 -4.55663086 1.22702637 -3.89306641 0.72607422 C-2.00878906 -0.19506836 -2.00878906 -0.19506836 0 0 Z M-66.00878906 61.80493164 C-65.67878906 63.45493164 -65.34878906 65.10493164 -65.00878906 66.80493164 C-64.35652344 66.78430664 -63.70425781 66.76368164 -63.03222656 66.74243164 C-55.96475503 66.90921563 -55.96475503 66.90921563 -53.14941406 69.54711914 C-51.63378906 71.67993164 -51.63378906 71.67993164 -50.36035156 73.79711914 C-48.50748926 76.54963713 -46.49023508 78.30173197 -43.32342529 79.37739563 C-40.15726502 79.96221648 -37.108676 79.94061814 -33.88867188 79.95019531 C-33.17917389 79.95355392 -32.4696759 79.95691254 -31.73867798 79.96037292 C-29.39640544 79.96986003 -27.05420461 79.97182513 -24.71191406 79.97290039 C-23.07769746 79.97611531 -21.44348114 79.97947957 -19.80926514 79.98298645 C-16.38292779 79.98897268 -12.95661564 79.99082695 -9.53027344 79.99023438 C-5.15471414 79.99013296 -0.77931788 80.00376581 3.59620285 80.02100658 C6.97296887 80.03216581 10.34969601 80.03415235 13.72647858 80.03362465 C15.33870249 80.0347996 16.95092758 80.03919398 18.56313324 80.04695702 C20.82670748 80.05683322 23.08993494 80.05384879 25.35351562 80.04785156 C27.28067413 80.04998909 27.28067413 80.04998909 29.24676514 80.0521698 C35.62097719 79.63129351 41.4952594 78.67554581 45.99121094 73.80493164 C47.08083236 71.56701687 48.02065933 69.29482406 48.95605469 66.98852539 C50.72951921 63.24751909 53.67030236 60.89809736 56.80371094 58.30493164 C58.51967634 56.1373964 58.27319038 54.48373634 57.99121094 51.80493164 C56.44555989 50.25928059 54.98113023 50.64734477 52.82710266 50.61065674 C51.47967484 50.5847496 51.47967484 50.5847496 50.10502625 50.55831909 C49.11138565 50.54463287 48.11774506 50.53094666 47.09399414 50.5168457 C46.05319702 50.49903046 45.0123999 50.48121521 43.94006348 50.46286011 C34.29369218 50.30786166 24.64628344 50.22083001 14.99894428 50.15286636 C8.51914123 50.10678277 2.04115737 50.03961071 -4.43774414 49.92016602 C-10.70257726 49.80508643 -16.96578075 49.74490918 -23.23160744 49.72234344 C-25.61221934 49.70463673 -27.99277375 49.66796261 -30.37277794 49.61133575 C-45.62361055 49.26581319 -55.37582008 50.24494308 -66.00878906 61.80493164 Z M-52.00878906 94.80493164 C-52.00878906 97.11493164 -52.00878906 99.42493164 -52.00878906 101.80493164 C-49.19368913 104.08228174 -49.19368913 104.08228174 -46.00878906 103.80493164 C-46.00878906 113.37493164 -46.00878906 122.94493164 -46.00878906 132.80493164 C-48.48378906 133.29993164 -48.48378906 133.29993164 -51.00878906 133.80493164 C-51.99878906 134.29993164 -51.99878906 134.29993164 -53.00878906 134.80493164 C-53.00878906 136.78493164 -53.00878906 138.76493164 -53.00878906 140.80493164 C-40.79878906 140.80493164 -28.58878906 140.80493164 -16.00878906 140.80493164 C-11.15612859 131.58787907 -11.15612859 131.58787907 -9.00878906 121.80493164 C-12.40959484 121.90901081 -12.40959484 121.90901081 -16.00878906 122.80493164 C-16.62753906 124.04243164 -16.62753906 124.04243164 -17.25878906 125.30493164 C-19.00878906 127.80493164 -19.00878906 127.80493164 -22.58300781 128.51196289 C-23.95325769 128.57153897 -25.32479309 128.60590646 -26.69628906 128.61743164 C-27.39818359 128.64256836 -28.10007812 128.66770508 -28.82324219 128.69360352 C-30.55115687 128.75237612 -32.28003336 128.78154134 -34.00878906 128.80493164 C-33.9860432 124.69952713 -33.90880972 120.59692605 -33.82128906 116.49243164 C-33.81548828 115.32518555 -33.8096875 114.15793945 -33.80371094 112.95532227 C-33.76020508 111.27792969 -33.76020508 111.27792969 -33.71582031 109.56665039 C-33.70010986 108.53499756 -33.68439941 107.50334473 -33.66821289 106.44042969 C-33.3417981 105.13585815 -33.3417981 105.13585815 -33.00878906 103.80493164 C-32.16920654 103.31484619 -31.32962402 102.82476074 -30.46459961 102.31982422 C-29.65418213 101.81990967 -28.84376465 101.31999512 -28.00878906 100.80493164 C-28.00878906 98.82493164 -28.00878906 96.84493164 -28.00878906 94.80493164 C-35.92878906 94.80493164 -43.84878906 94.80493164 -52.00878906 94.80493164 Z M-6.00878906 94.80493164 C-6.00878906 97.11493164 -6.00878906 99.42493164 -6.00878906 101.80493164 C-4.02878906 102.46493164 -2.04878906 103.12493164 -0.00878906 103.80493164 C-0.00878906 113.37493164 -0.00878906 122.94493164 -0.00878906 132.80493164 C-1.98878906 133.46493164 -3.96878906 134.12493164 -6.00878906 134.80493164 C-6.00878906 137.11493164 -6.00878906 139.42493164 -6.00878906 141.80493164 C1.25121094 141.80493164 8.51121094 141.80493164 15.99121094 141.80493164 C16.32121094 140.15493164 16.65121094 138.50493164 16.99121094 136.80493164 C14.3187346 134.46205746 14.3187346 134.46205746 10.99121094 133.80493164 C11.32121094 127.20493164 11.65121094 120.60493164 11.99121094 113.80493164 C14.63121094 118.75493164 17.27121094 123.70493164 19.99121094 128.80493164 C20.65121094 128.80493164 21.31121094 128.80493164 21.99121094 128.80493164 C23.62606569 126.32609051 25.13537903 123.87248179 26.61621094 121.30493164 C28.05996094 118.82993164 29.50371094 116.35493164 30.99121094 113.80493164 C31.48621094 123.20993164 31.48621094 123.20993164 31.99121094 132.80493164 C30.34121094 133.46493164 28.69121094 134.12493164 26.99121094 134.80493164 C26.33121094 135.46493164 25.67121094 136.12493164 24.99121094 136.80493164 C24.99121094 138.45493164 24.99121094 140.10493164 24.99121094 141.80493164 C33.24121094 141.80493164 41.49121094 141.80493164 49.99121094 141.80493164 C49.99121094 139.82493164 49.99121094 137.84493164 49.99121094 135.80493164 C49.18079346 135.32306396 48.37037598 134.84119629 47.53540039 134.34472656 C46.69581787 133.83659424 45.85623535 133.32846191 44.99121094 132.80493164 C44.33178711 129.80224609 44.33178711 129.80224609 44.28417969 126.16821289 C44.25517578 124.86948242 44.22617188 123.57075195 44.19628906 122.23266602 C44.18989972 120.86092359 44.18404722 119.48917857 44.17871094 118.11743164 C44.15556894 116.73392866 44.13020419 115.35046094 44.10253906 113.96704102 C44.04352063 110.57938299 44.00734621 107.19302161 43.99121094 103.80493164 C44.77496094 103.68118164 45.55871094 103.55743164 46.36621094 103.42993164 C49.13178915 103.01375171 49.13178915 103.01375171 50.99121094 100.80493164 C51.15802203 97.72145338 51.15802203 97.72145338 50.99121094 94.80493164 C41.4225896 93.26171246 41.4225896 93.26171246 31.99121094 94.80493164 C27.43784867 98.83859078 25.01258437 104.59784528 22.72119141 110.13085938 C21.99121094 111.80493164 21.99121094 111.80493164 20.99121094 112.80493164 C17.69121094 106.86493164 14.39121094 100.92493164 10.99121094 94.80493164 C5.38121094 94.80493164 -0.22878906 94.80493164 -6.00878906 94.80493164 Z " fill="#CA9826" transform="translate(119.0087890625,24.195068359375)"/>
<path d="M0 0 C3.01187134 -0.36076355 3.01187134 -0.36076355 6.92822266 -0.34057617 C7.64052536 -0.34101425 8.35282806 -0.34145233 9.0867157 -0.34190369 C11.44610812 -0.3398101 13.80479391 -0.31645325 16.1640625 -0.29296875 C17.79787813 -0.2873748 19.43169878 -0.28310375 21.06552124 -0.28010559 C25.36960702 -0.26864094 29.67338998 -0.23916008 33.97735596 -0.20599365 C38.36767479 -0.17532751 42.75804247 -0.16160767 47.1484375 -0.14648438 C55.7657641 -0.11429171 64.3828444 -0.06307608 73 0 C71.79618552 2.49361571 70.54571278 4.68143083 69 7 C65.98812866 7.36076355 65.98812866 7.36076355 62.07177734 7.34057617 C61.35947464 7.34101425 60.64717194 7.34145233 59.9132843 7.34190369 C57.55389188 7.3398101 55.19520609 7.31645325 52.8359375 7.29296875 C51.20212187 7.2873748 49.56830122 7.28310375 47.93447876 7.28010559 C43.63039298 7.26864094 39.32661002 7.23916008 35.02264404 7.20599365 C30.63232521 7.17532751 26.24195753 7.16160767 21.8515625 7.14648438 C13.2342359 7.11429171 4.6171556 7.06307608 -4 7 C-2.79618552 4.50638429 -1.54571278 2.31856917 0 0 Z " fill="#CB951E" transform="translate(78,80)"/>
<path d="M0 0 C24.09 0 48.18 0 73 0 C71 4 71 4 69 7 C68.34 7 67.68 7 67 7 C67 6.01 67 5.02 67 4 C67.66 4 68.32 4 69 4 C69 3.01 69 2.02 69 1 C46.23 1 23.46 1 0 1 C0 0.67 0 0.34 0 0 Z " fill="#BC8F2C" transform="translate(78,80)"/>
<path d="M0 0 C0.33 0 0.66 0 1 0 C1 1.65 1 3.3 1 5 C-2.81840442 7.55432077 -6.64794757 7.16668513 -11.046875 6.9765625 C-11.81807678 6.95153656 -12.58927856 6.92651062 -13.3838501 6.90072632 C-15.83969571 6.8187528 -18.29470962 6.72207744 -20.75 6.625 C-22.41793511 6.56673718 -24.08590405 6.5094344 -25.75390625 6.453125 C-29.83641324 6.31320809 -33.91823696 6.16010636 -38 6 C-37.67 5.34 -37.34 4.68 -37 4 C-25.12 4 -13.24 4 -1 4 C-0.67 2.68 -0.34 1.36 0 0 Z " fill="#C0963D" transform="translate(104,161)"/>
<path d="M0 0 C0.33 0 0.66 0 1 0 C1 9.57 1 19.14 1 29 C-0.98 29.66 -2.96 30.32 -5 31 C-5 32.98 -5 34.96 -5 37 C-5.66 37 -6.32 37 -7 37 C-7.99 33.535 -7.99 33.535 -9 30 C-8.34 30 -7.68 30 -7 30 C-6.67 28.68 -6.34 27.36 -6 26 C-3.525 26.99 -3.525 26.99 -1 28 C-0.67 18.76 -0.34 9.52 0 0 Z " fill="#BB9739" transform="translate(118,128)"/>
<path d="M0 0 C1.7936743 1.1217963 3.5848773 2.24754483 5.375 3.375 C6.37273437 4.00148438 7.37046875 4.62796875 8.3984375 5.2734375 C11 7 11 7 13 9 C12.64638402 13.5970078 11.58012426 17.68099369 10 22 C9.67 22 9.34 22 9 22 C9.01160156 21.25234375 9.02320313 20.5046875 9.03515625 19.734375 C9.04417969 18.74953125 9.05320313 17.7646875 9.0625 16.75 C9.07410156 15.77546875 9.08570313 14.8009375 9.09765625 13.796875 C9.01195577 11.34241322 8.70706066 9.33831086 8 7 C6.02 7.66 4.04 8.32 2 9 C2.33 7.02 2.66 5.04 3 3 C2.01 2.67 1.02 2.34 0 2 C0 1.34 0 0.68 0 0 Z " fill="#BF942A" transform="translate(192,77)"/>
<path d="M0 0 C0.33 0 0.66 0 1 0 C1 6.6 1 13.2 1 20 C0.34 20 -0.32 20 -1 20 C-1 15.71 -1 11.42 -1 7 C-1.66 7 -2.32 7 -3 7 C-3.28875 7.804375 -3.5775 8.60875 -3.875 9.4375 C-5 12 -5 12 -7 13 C-5.37621488 8.27626146 -2.89006982 4.05818166 0 0 Z " fill="#BA963B" transform="translate(150,137)"/>
<path d="M0 0 C0.66 0.33 1.32 0.66 2 1 C0.625 3.5 0.625 3.5 -1 6 C-1.66 6 -2.32 6 -3 6 C-3.33 6.66 -3.66 7.32 -4 8 C-4.99 8 -5.98 8 -7 8 C-9.17032476 9.43990623 -9.17032476 9.43990623 -11 11 C-11.66 10.67 -12.32 10.34 -13 10 C-8.71 6.7 -4.42 3.4 0 0 Z " fill="#BE912C" transform="translate(67,60)"/>
<path d="M0 0 C0.66 0.33 1.32 0.66 2 1 C0.515 3.475 0.515 3.475 -1 6 C0.65 6.33 2.3 6.66 4 7 C3.01 7.495 3.01 7.495 2 8 C1.34227572 11.02934491 1.34227572 11.02934491 1 14 C-1.21399303 10.20458337 -2.00980198 6.24370579 -3 2 C-2.01 1.34 -1.02 0.68 0 0 Z " fill="#BC932C" transform="translate(34,84)"/>
<path d="M0 0 C0.99 0.99 1.98 1.98 3 3 C3 3.66 3 4.32 3 5 C2.34 5 1.68 5 1 5 C1 9.95 1 14.9 1 20 C1.99 20.33 2.98 20.66 4 21 C3.34 21.33 2.68 21.66 2 22 C1.34 21.67 0.68 21.34 0 21 C0 14.07 0 7.14 0 0 Z " fill="#BB933B" transform="translate(130,137)"/>
<path d="M0 0 C0.33 0.99 0.66 1.98 1 3 C3.43387753 4.21693876 5.41838846 4.31959896 8.125 4.5625 C9.03507812 4.64628906 9.94515625 4.73007813 10.8828125 4.81640625 C11.58148438 4.87699219 12.28015625 4.93757813 13 5 C13 5.33 13 5.66 13 6 C7.72 6 2.44 6 -3 6 C-2 4 -1 2 0 0 Z " fill="#C49125" transform="translate(77,81)"/>
<path d="M0 0 C0.66 0.33 1.32 0.66 2 1 C-1.36621881 4.78699616 -5.41641804 7.8272631 -10 10 C-10.66 9.67 -11.32 9.34 -12 9 C-8.04 6.03 -4.08 3.06 0 0 Z " fill="#B89029" transform="translate(52,71)"/>
<path d="M0 0 C2.64389311 1.12165162 4.15345436 2.76141376 6.0625 4.875 C3.67685923 4.29915568 1.39567216 3.65272405 -0.9375 2.875 C-3.10465557 3.74983915 -3.10465557 3.74983915 -4.9375 4.875 C-4.9375 3.885 -4.9375 2.895 -4.9375 1.875 C-1.9375 -0.125 -1.9375 -0.125 0 0 Z " fill="#BC912B" transform="translate(118.9375,24.125)"/>
<path d="M0 0 C0.66 0.33 1.32 0.66 2 1 C1.3503125 1.5878125 1.3503125 1.5878125 0.6875 2.1875 C-1.26366224 4.28319278 -2.59010162 6.51589333 -4 9 C-4.66 8.67 -5.32 8.34 -6 8 C-5.65120368 4.74456771 -4.97866739 3.98126893 -2.4375 1.75 C-1.633125 1.1725 -0.82875 0.595 0 0 Z " fill="#C09028" transform="translate(111,28)"/>
<path d="M0 0 C-0.9590625 0.5878125 -0.9590625 0.5878125 -1.9375 1.1875 C-4.43778819 3.38472296 -4.64950425 4.75791433 -5 8 C-5.33 8 -5.66 8 -6 8 C-6 5.36 -6 2.72 -6 0 C-3 -1 -3 -1 0 0 Z " fill="#BA9432" transform="translate(149,158)"/>
<path d="M0 0 C0.99 0.33 1.98 0.66 3 1 C2.2884375 1.61875 2.2884375 1.61875 1.5625 2.25 C-0.16266518 4.182185 -0.56584875 5.48192275 -1 8 C-1.99 7.67 -2.98 7.34 -4 7 C-3.34 7 -2.68 7 -2 7 C-2.04125 6.21625 -2.0825 5.4325 -2.125 4.625 C-2 2 -2 2 0 0 Z " fill="#CC9F1B" transform="translate(139,158)"/>
<path d="M0 0 C1.65 1.65 3.3 3.3 5 5 C2.69 5.33 0.38 5.66 -2 6 C-1.34 4.02 -0.68 2.04 0 0 Z " fill="#BD932A" transform="translate(67,97)"/>
<path d="M0 0 C0.66 0.33 1.32 0.66 2 1 C4.09821215 0.60061233 4.09821215 0.60061233 6 0 C4.37660195 1.70884005 2.70680947 3.37446717 1 5 C0.34 5 -0.32 5 -1 5 C-0.67 3.35 -0.34 1.7 0 0 Z " fill="#BF8F20" transform="translate(53,81)"/>
</svg>
